<?xml version="1.0" encoding="utf-8"?>
<!-- Generator: Adobe Illustrator 17.0.0, SVG Export Plug-In . SVG Version: 6.00 Build 0)  -->
<!DOCTYPE svg PUBLIC "-//W3C//DTD SVG 1.1//EN" "http://www.w3.org/Graphics/SVG/1.1/DTD/svg11.dtd" [
	<!ENTITY ns_flows "http://ns.adobe.com/Flows/1.0/">
	<!ENTITY ns_extend "http://ns.adobe.com/Extensibility/1.0/">
	<!ENTITY ns_ai "http://ns.adobe.com/AdobeIllustrator/10.0/">
	<!ENTITY ns_graphs "http://ns.adobe.com/Graphs/1.0/">
]>
<svg version="1.1" id="Layer_1" xmlns:x="&ns_extend;" xmlns:i="&ns_ai;" xmlns:graph="&ns_graphs;"
	 xmlns="http://www.w3.org/2000/svg" xmlns:xlink="http://www.w3.org/1999/xlink" xmlns:a="http://ns.adobe.com/AdobeSVGViewerExtensions/3.0/"
	 x="0px" y="0px" width="223.5px" height="224.5px" viewBox="0 0 223.5 224.5" enable-background="new 0 0 223.5 224.5"
	 xml:space="preserve">
<g>
	<path fill="none" stroke="#FFFFFF" stroke-width="2" stroke-miterlimit="10" d="M112.7,6.1C171,5.5,219.7,54,219.4,112.9
		c-0.2,58-48.5,106.2-107.5,106C54,218.6,5.1,170.9,5.5,111.5C6,53.8,53.9,5.4,112.7,6.1z"/>
	<path fill="#FF931E" d="M64.4,79.5c0.2-22.5,15.7-44,37.8-49c13.6-3.1,25.7,0.3,36.5,8.8c10.5,8.3,16.7,19.4,19,32.5
		c1.8,10.4-0.1,20.5-4.2,30.1c-4.3,9.9-10.7,18.3-19.5,24.7c-14.6,10.6-31.6,10.3-45.9-0.6c-13.4-10.2-21-24-23.2-40.7
		C64.6,83.4,64.4,81.4,64.4,79.5z"/>
</g>
<g>
	<path fill="none" stroke="#FFFFFF" stroke-miterlimit="10" d="M229.8,119.8"/>
	<path fill="#FF931E" stroke="#FFFFFF" stroke-miterlimit="10" d="M232.1,166.9"/>
	<path fill="#FF931E" d="M111.1,218.2c41.8,0.2,78.1-23.9,95.9-58.5c-9.8-7.2-25.3-17.6-29-17.6c-12.5,0-24.2-3-35.4-8.4
		c-1.3-0.6-2.1-0.5-3.1,0.6c-3.1,3.3-6.5,6.2-10.5,8.4c-9.5,5.4-19.5,7-30.1,3.6c-6.9-2.2-12.6-6.3-17.8-11.1
		c-1.1-1-1.9-1.2-3.3-0.6c-10.2,4.4-20.8,7.5-32,7.4c-4.3,0-21,6-31,11.1C31.1,190.8,68.1,218,111.1,218.2z"/>
</g>
</svg>
